<mxfile host="app.diagrams.net" modified="2021-07-15T07:44:28.084Z" agent="5.0 (X11; Linux x86_64) AppleWebKit/537.36 (KHTML, like Gecko) Chrome/91.0.4472.114 Safari/537.36" etag="Fl011Of2suM-4q3xrGWN" version="14.8.6" type="github">
  <diagram id="D4vt_JizwiGhyIq_tCMl" name="Page-1">
    <mxGraphModel dx="2512" dy="1933" grid="1" gridSize="10" guides="1" tooltips="1" connect="1" arrows="1" fold="1" page="1" pageScale="1" pageWidth="850" pageHeight="1100" math="0" shadow="0">
      <root>
        <mxCell id="0" />
        <mxCell id="1" parent="0" />
        <mxCell id="d7MVmfg-RTv1msQ8y9jw-11" style="edgeStyle=orthogonalEdgeStyle;rounded=0;orthogonalLoop=1;jettySize=auto;html=1;exitX=0.86;exitY=0.39;exitDx=0;exitDy=0;exitPerimeter=0;" parent="1" source="d7MVmfg-RTv1msQ8y9jw-8" target="d7MVmfg-RTv1msQ8y9jw-10" edge="1">
          <mxGeometry relative="1" as="geometry" />
        </mxCell>
        <mxCell id="d7MVmfg-RTv1msQ8y9jw-8" value="" style="outlineConnect=0;dashed=0;verticalLabelPosition=bottom;verticalAlign=top;align=center;html=1;shape=mxgraph.aws3.application;fillColor=#F58534;gradientColor=none;" parent="1" vertex="1">
          <mxGeometry x="-310" y="-270" width="34.5" height="64.5" as="geometry" />
        </mxCell>
        <mxCell id="d7MVmfg-RTv1msQ8y9jw-16" style="edgeStyle=orthogonalEdgeStyle;rounded=0;orthogonalLoop=1;jettySize=auto;html=1;entryX=0;entryY=0.5;entryDx=0;entryDy=0;entryPerimeter=0;" parent="1" source="d7MVmfg-RTv1msQ8y9jw-10" target="d7MVmfg-RTv1msQ8y9jw-15" edge="1">
          <mxGeometry relative="1" as="geometry" />
        </mxCell>
        <mxCell id="d7MVmfg-RTv1msQ8y9jw-10" value="" style="points=[[0,0,0],[0.25,0,0],[0.5,0,0],[0.75,0,0],[1,0,0],[0,1,0],[0.25,1,0],[0.5,1,0],[0.75,1,0],[1,1,0],[0,0.25,0],[0,0.5,0],[0,0.75,0],[1,0.25,0],[1,0.5,0],[1,0.75,0]];outlineConnect=0;fontColor=#232F3E;gradientColor=#F34482;gradientDirection=north;fillColor=#BC1356;strokeColor=#ffffff;dashed=0;verticalLabelPosition=bottom;verticalAlign=top;align=center;html=1;fontSize=12;fontStyle=0;aspect=fixed;shape=mxgraph.aws4.resourceIcon;resIcon=mxgraph.aws4.api_gateway;" parent="1" vertex="1">
          <mxGeometry x="-160" y="-73.5" width="85" height="85" as="geometry" />
        </mxCell>
        <mxCell id="d7MVmfg-RTv1msQ8y9jw-12" value="E CommerceApp&lt;br&gt;" style="text;html=1;strokeColor=none;fillColor=none;align=center;verticalAlign=middle;whiteSpace=wrap;rounded=0;" parent="1" vertex="1">
          <mxGeometry x="-310" y="-190" width="40" height="20" as="geometry" />
        </mxCell>
        <mxCell id="d7MVmfg-RTv1msQ8y9jw-13" value="Api Gateway /OAuth&amp;nbsp;&lt;br&gt;" style="text;html=1;strokeColor=none;fillColor=none;align=center;verticalAlign=middle;whiteSpace=wrap;rounded=0;" parent="1" vertex="1">
          <mxGeometry x="-115" y="-150" width="40" height="93.25" as="geometry" />
        </mxCell>
        <mxCell id="c6L_GwuFG2z1LtC3eL-s-38" style="edgeStyle=orthogonalEdgeStyle;rounded=0;orthogonalLoop=1;jettySize=auto;html=1;" parent="1" source="d7MVmfg-RTv1msQ8y9jw-15" edge="1">
          <mxGeometry relative="1" as="geometry">
            <mxPoint x="470" y="-31.75" as="targetPoint" />
          </mxGeometry>
        </mxCell>
        <mxCell id="c6L_GwuFG2z1LtC3eL-s-56" style="edgeStyle=orthogonalEdgeStyle;rounded=0;orthogonalLoop=1;jettySize=auto;html=1;entryX=0.005;entryY=0.63;entryDx=0;entryDy=0;entryPerimeter=0;" parent="1" source="d7MVmfg-RTv1msQ8y9jw-15" target="d7MVmfg-RTv1msQ8y9jw-173" edge="1">
          <mxGeometry relative="1" as="geometry">
            <Array as="points">
              <mxPoint x="300" y="-10" />
              <mxPoint x="300" y="153" />
              <mxPoint x="471" y="153" />
            </Array>
          </mxGeometry>
        </mxCell>
        <mxCell id="c6L_GwuFG2z1LtC3eL-s-64" style="edgeStyle=orthogonalEdgeStyle;rounded=0;orthogonalLoop=1;jettySize=auto;html=1;entryX=0.5;entryY=0;entryDx=0;entryDy=0;entryPerimeter=0;" parent="1" source="d7MVmfg-RTv1msQ8y9jw-15" target="d7MVmfg-RTv1msQ8y9jw-112" edge="1">
          <mxGeometry relative="1" as="geometry">
            <Array as="points">
              <mxPoint x="50" y="230" />
              <mxPoint x="498" y="230" />
            </Array>
          </mxGeometry>
        </mxCell>
        <mxCell id="c6L_GwuFG2z1LtC3eL-s-67" style="edgeStyle=orthogonalEdgeStyle;rounded=0;orthogonalLoop=1;jettySize=auto;html=1;" parent="1" source="d7MVmfg-RTv1msQ8y9jw-15" target="c6L_GwuFG2z1LtC3eL-s-66" edge="1">
          <mxGeometry relative="1" as="geometry">
            <Array as="points">
              <mxPoint x="30" y="505" />
            </Array>
          </mxGeometry>
        </mxCell>
        <mxCell id="d7MVmfg-RTv1msQ8y9jw-15" value="" style="outlineConnect=0;dashed=0;verticalLabelPosition=bottom;verticalAlign=top;align=center;html=1;shape=mxgraph.aws3.application_discovery_service;fillColor=#5294CF;gradientColor=none;" parent="1" vertex="1">
          <mxGeometry x="10" y="-81.5" width="80" height="101" as="geometry" />
        </mxCell>
        <mxCell id="E4ljKwpt6V25fC0PbpRW-5" style="edgeStyle=orthogonalEdgeStyle;rounded=0;orthogonalLoop=1;jettySize=auto;html=1;entryX=0.005;entryY=0.63;entryDx=0;entryDy=0;entryPerimeter=0;" edge="1" parent="1" source="d7MVmfg-RTv1msQ8y9jw-17" target="E4ljKwpt6V25fC0PbpRW-1">
          <mxGeometry relative="1" as="geometry">
            <Array as="points">
              <mxPoint x="50" y="-750" />
              <mxPoint x="448" y="-750" />
            </Array>
          </mxGeometry>
        </mxCell>
        <mxCell id="d7MVmfg-RTv1msQ8y9jw-17" value="Discover Service&lt;br&gt;/Load Balancer" style="text;html=1;align=center;verticalAlign=middle;resizable=0;points=[];autosize=1;strokeColor=none;" parent="1" vertex="1">
          <mxGeometry x="-20" y="-120" width="110" height="30" as="geometry" />
        </mxCell>
        <mxCell id="d7MVmfg-RTv1msQ8y9jw-37" style="edgeStyle=orthogonalEdgeStyle;rounded=0;orthogonalLoop=1;jettySize=auto;html=1;exitX=0.005;exitY=0.63;exitDx=0;exitDy=0;exitPerimeter=0;" parent="1" source="d7MVmfg-RTv1msQ8y9jw-19" target="d7MVmfg-RTv1msQ8y9jw-15" edge="1">
          <mxGeometry relative="1" as="geometry">
            <Array as="points">
              <mxPoint x="380" y="-373" />
              <mxPoint x="380" y="-100" />
              <mxPoint x="50" y="-100" />
            </Array>
          </mxGeometry>
        </mxCell>
        <mxCell id="d7MVmfg-RTv1msQ8y9jw-84" style="edgeStyle=orthogonalEdgeStyle;rounded=0;orthogonalLoop=1;jettySize=auto;html=1;entryX=0.5;entryY=0;entryDx=0;entryDy=0;" parent="1" source="d7MVmfg-RTv1msQ8y9jw-19" target="d7MVmfg-RTv1msQ8y9jw-27" edge="1">
          <mxGeometry relative="1" as="geometry" />
        </mxCell>
        <mxCell id="c6L_GwuFG2z1LtC3eL-s-17" style="edgeStyle=orthogonalEdgeStyle;rounded=0;orthogonalLoop=1;jettySize=auto;html=1;entryX=0;entryY=0.5;entryDx=0;entryDy=0;entryPerimeter=0;" parent="1" source="d7MVmfg-RTv1msQ8y9jw-19" target="d7MVmfg-RTv1msQ8y9jw-47" edge="1">
          <mxGeometry relative="1" as="geometry" />
        </mxCell>
        <mxCell id="d7MVmfg-RTv1msQ8y9jw-19" value="" style="html=1;dashed=0;whitespace=wrap;fillColor=#2875E2;strokeColor=#ffffff;points=[[0.005,0.63,0],[0.1,0.2,0],[0.9,0.2,0],[0.5,0,0],[0.995,0.63,0],[0.72,0.99,0],[0.5,1,0],[0.28,0.99,0]];shape=mxgraph.kubernetes.icon;prIcon=api" parent="1" vertex="1">
          <mxGeometry x="452.5" y="-422.5" width="100" height="78" as="geometry" />
        </mxCell>
        <mxCell id="d7MVmfg-RTv1msQ8y9jw-21" value="GET or POST /fleet-management/delivery?isLaungHaul" style="text;html=1;strokeColor=none;fillColor=none;align=center;verticalAlign=middle;whiteSpace=wrap;rounded=0;" parent="1" vertex="1">
          <mxGeometry x="259.5" y="-430" width="230.5" height="20" as="geometry" />
        </mxCell>
        <mxCell id="d7MVmfg-RTv1msQ8y9jw-27" value="" style="shape=cylinder;whiteSpace=wrap;html=1;boundedLbl=1;backgroundOutline=1;dashed=0;fontColor=#232F3E;fontStyle=0;verticalAlign=top;strokeColor=#ffffff;fillColor=#5A30B5;gradientColor=#945DF2;gradientDirection=north;" parent="1" vertex="1">
          <mxGeometry x="472.5" y="-300" width="60" height="80" as="geometry" />
        </mxCell>
        <mxCell id="d7MVmfg-RTv1msQ8y9jw-38" value="GET 200 OK with pricing&lt;br&gt;POST 201 CREATED" style="text;html=1;strokeColor=none;fillColor=none;align=center;verticalAlign=middle;whiteSpace=wrap;rounded=0;" parent="1" vertex="1">
          <mxGeometry x="325" y="-360" width="165" height="35" as="geometry" />
        </mxCell>
        <mxCell id="E4ljKwpt6V25fC0PbpRW-16" style="edgeStyle=orthogonalEdgeStyle;rounded=0;orthogonalLoop=1;jettySize=auto;html=1;" edge="1" parent="1" source="d7MVmfg-RTv1msQ8y9jw-47" target="E4ljKwpt6V25fC0PbpRW-1">
          <mxGeometry relative="1" as="geometry">
            <Array as="points">
              <mxPoint x="760" y="-720" />
            </Array>
          </mxGeometry>
        </mxCell>
        <mxCell id="d7MVmfg-RTv1msQ8y9jw-47" value="AWS SQS/RabbitMQ/Kafka" style="outlineConnect=0;dashed=0;verticalLabelPosition=bottom;verticalAlign=top;align=center;html=1;shape=mxgraph.aws3.sqs;fillColor=#D9A741;gradientColor=none;" parent="1" vertex="1">
          <mxGeometry x="730" y="-430" width="76.5" height="93" as="geometry" />
        </mxCell>
        <mxCell id="d7MVmfg-RTv1msQ8y9jw-82" value="PRICING DB" style="text;html=1;strokeColor=none;fillColor=none;align=center;verticalAlign=middle;whiteSpace=wrap;rounded=0;" parent="1" vertex="1">
          <mxGeometry x="485" y="-260" width="40" height="20" as="geometry" />
        </mxCell>
        <mxCell id="c6L_GwuFG2z1LtC3eL-s-5" style="edgeStyle=orthogonalEdgeStyle;rounded=0;orthogonalLoop=1;jettySize=auto;html=1;entryX=0.435;entryY=0.064;entryDx=0;entryDy=0;entryPerimeter=0;" parent="1" source="d7MVmfg-RTv1msQ8y9jw-85" target="d7MVmfg-RTv1msQ8y9jw-19" edge="1">
          <mxGeometry relative="1" as="geometry" />
        </mxCell>
        <mxCell id="d7MVmfg-RTv1msQ8y9jw-85" value="maps APIs" style="shape=image;html=1;verticalAlign=top;verticalLabelPosition=bottom;labelBackgroundColor=#ffffff;imageAspect=0;aspect=fixed;image=https://cdn4.iconfinder.com/data/icons/flatified/128/map.png" parent="1" vertex="1">
          <mxGeometry x="530.5" y="-660" width="128" height="128" as="geometry" />
        </mxCell>
        <mxCell id="d7MVmfg-RTv1msQ8y9jw-90" value="checkFirstMile or Laung Haul and notify the courier service accordingly" style="shape=process;whiteSpace=wrap;html=1;backgroundOutline=1;dashed=0;verticalAlign=top;fillColor=#D9A741;" parent="1" vertex="1">
          <mxGeometry x="360" y="-860" width="140" height="80" as="geometry" />
        </mxCell>
        <mxCell id="d7MVmfg-RTv1msQ8y9jw-92" value="in case of laung haul, check shortest route using maps api dynamically and derive the price using pricing algo" style="rounded=1;whiteSpace=wrap;html=1;" parent="1" vertex="1">
          <mxGeometry x="520" y="-500" width="120" height="90" as="geometry" />
        </mxCell>
        <mxCell id="d7MVmfg-RTv1msQ8y9jw-103" style="edgeStyle=orthogonalEdgeStyle;rounded=0;orthogonalLoop=1;jettySize=auto;html=1;" parent="1" source="d7MVmfg-RTv1msQ8y9jw-102" target="d7MVmfg-RTv1msQ8y9jw-10" edge="1">
          <mxGeometry relative="1" as="geometry" />
        </mxCell>
        <mxCell id="d7MVmfg-RTv1msQ8y9jw-102" value="Dashboards" style="pointerEvents=1;shadow=0;dashed=0;html=1;strokeColor=none;fillColor=#434445;aspect=fixed;labelPosition=center;verticalLabelPosition=bottom;verticalAlign=top;align=center;outlineConnect=0;shape=mxgraph.vvd.nsx_dashboard;" parent="1" vertex="1">
          <mxGeometry x="-374.52000000000004" y="-85" width="114.52" height="106.5" as="geometry" />
        </mxCell>
        <mxCell id="c6L_GwuFG2z1LtC3eL-s-59" style="edgeStyle=orthogonalEdgeStyle;rounded=0;orthogonalLoop=1;jettySize=auto;html=1;" parent="1" source="d7MVmfg-RTv1msQ8y9jw-106" target="c6L_GwuFG2z1LtC3eL-s-24" edge="1">
          <mxGeometry relative="1" as="geometry" />
        </mxCell>
        <mxCell id="d7MVmfg-RTv1msQ8y9jw-106" value="" style="html=1;dashed=0;whitespace=wrap;fillColor=#2875E2;strokeColor=#ffffff;points=[[0.005,0.63,0],[0.1,0.2,0],[0.9,0.2,0],[0.5,0,0],[0.995,0.63,0],[0.72,0.99,0],[0.5,1,0],[0.28,0.99,0]];shape=mxgraph.kubernetes.icon;prIcon=api" parent="1" vertex="1">
          <mxGeometry x="470.5" y="-85" width="60" height="91.5" as="geometry" />
        </mxCell>
        <mxCell id="d7MVmfg-RTv1msQ8y9jw-107" value="/fleet-management/dashboards" style="text;html=1;strokeColor=none;fillColor=none;align=center;verticalAlign=middle;whiteSpace=wrap;rounded=0;" parent="1" vertex="1">
          <mxGeometry x="325" y="120" width="155" height="20" as="geometry" />
        </mxCell>
        <mxCell id="c6L_GwuFG2z1LtC3eL-s-65" style="edgeStyle=orthogonalEdgeStyle;rounded=0;orthogonalLoop=1;jettySize=auto;html=1;entryX=0.5;entryY=1;entryDx=0;entryDy=0;entryPerimeter=0;" parent="1" source="d7MVmfg-RTv1msQ8y9jw-112" target="c6L_GwuFG2z1LtC3eL-s-43" edge="1">
          <mxGeometry relative="1" as="geometry" />
        </mxCell>
        <mxCell id="c6L_GwuFG2z1LtC3eL-s-73" style="edgeStyle=orthogonalEdgeStyle;rounded=0;orthogonalLoop=1;jettySize=auto;html=1;entryX=0.5;entryY=0;entryDx=0;entryDy=0;entryPerimeter=0;" parent="1" source="d7MVmfg-RTv1msQ8y9jw-112" target="c6L_GwuFG2z1LtC3eL-s-68" edge="1">
          <mxGeometry relative="1" as="geometry">
            <Array as="points">
              <mxPoint x="498" y="430" />
              <mxPoint x="790" y="430" />
            </Array>
          </mxGeometry>
        </mxCell>
        <mxCell id="d7MVmfg-RTv1msQ8y9jw-112" value="" style="html=1;dashed=0;whitespace=wrap;fillColor=#2875E2;strokeColor=#ffffff;points=[[0.005,0.63,0],[0.1,0.2,0],[0.9,0.2,0],[0.5,0,0],[0.995,0.63,0],[0.72,0.99,0],[0.5,1,0],[0.28,0.99,0]];shape=mxgraph.kubernetes.icon;prIcon=api" parent="1" vertex="1">
          <mxGeometry x="472.5" y="360" width="50" height="60" as="geometry" />
        </mxCell>
        <mxCell id="d7MVmfg-RTv1msQ8y9jw-117" value="" style="aspect=fixed;html=1;points=[];align=center;image;fontSize=12;image=img/lib/azure2/general/Help_and_Support.svg;" parent="1" vertex="1">
          <mxGeometry x="-366" y="202" width="56.00000000000001" height="69" as="geometry" />
        </mxCell>
        <mxCell id="d7MVmfg-RTv1msQ8y9jw-120" value="/fleet-management/support" style="text;html=1;strokeColor=none;fillColor=none;align=center;verticalAlign=middle;whiteSpace=wrap;rounded=0;" parent="1" vertex="1">
          <mxGeometry x="361.25" y="470" width="82.5" height="20" as="geometry" />
        </mxCell>
        <mxCell id="c6L_GwuFG2z1LtC3eL-s-58" style="edgeStyle=orthogonalEdgeStyle;rounded=0;orthogonalLoop=1;jettySize=auto;html=1;entryX=0.017;entryY=0.65;entryDx=0;entryDy=0;entryPerimeter=0;" parent="1" source="d7MVmfg-RTv1msQ8y9jw-173" target="c6L_GwuFG2z1LtC3eL-s-43" edge="1">
          <mxGeometry relative="1" as="geometry" />
        </mxCell>
        <mxCell id="d7MVmfg-RTv1msQ8y9jw-173" value="" style="html=1;dashed=0;whitespace=wrap;fillColor=#2875E2;strokeColor=#ffffff;points=[[0.005,0.63,0],[0.1,0.2,0],[0.9,0.2,0],[0.5,0,0],[0.995,0.63,0],[0.72,0.99,0],[0.5,1,0],[0.28,0.99,0]];shape=mxgraph.kubernetes.icon;prIcon=api" parent="1" vertex="1">
          <mxGeometry x="470.5" y="101.5" width="60" height="91.5" as="geometry" />
        </mxCell>
        <mxCell id="MmtBXjd9yNij9dpkOTJT-9" value="AWS Auto Scaling" style="outlineConnect=0;fontColor=#232F3E;gradientColor=none;strokeColor=#ffffff;fillColor=#232F3E;dashed=0;verticalLabelPosition=middle;verticalAlign=bottom;align=center;html=1;whiteSpace=wrap;fontSize=10;fontStyle=1;spacing=3;shape=mxgraph.aws4.productIcon;prIcon=mxgraph.aws4.autoscaling;" parent="1" vertex="1">
          <mxGeometry x="390.5" y="-10" width="80" height="110" as="geometry" />
        </mxCell>
        <mxCell id="c6L_GwuFG2z1LtC3eL-s-1" value="" style="edgeStyle=orthogonalEdgeStyle;rounded=0;orthogonalLoop=1;jettySize=auto;html=1;" parent="1" source="MmtBXjd9yNij9dpkOTJT-18" target="d7MVmfg-RTv1msQ8y9jw-117" edge="1">
          <mxGeometry relative="1" as="geometry" />
        </mxCell>
        <mxCell id="c6L_GwuFG2z1LtC3eL-s-12" style="edgeStyle=orthogonalEdgeStyle;rounded=0;orthogonalLoop=1;jettySize=auto;html=1;entryX=0.5;entryY=1;entryDx=0;entryDy=0;entryPerimeter=0;" parent="1" source="MmtBXjd9yNij9dpkOTJT-18" target="d7MVmfg-RTv1msQ8y9jw-10" edge="1">
          <mxGeometry relative="1" as="geometry" />
        </mxCell>
        <mxCell id="MmtBXjd9yNij9dpkOTJT-18" value="&lt;br&gt;Reporting&lt;br&gt;/customermanagement" style="ellipse;shape=cloud;whiteSpace=wrap;html=1;dashed=0;fontColor=#232F3E;fontStyle=0;verticalAlign=top;strokeColor=#232F3E;" parent="1" vertex="1">
          <mxGeometry x="-220" y="186.5" width="170" height="100" as="geometry" />
        </mxCell>
        <mxCell id="c6L_GwuFG2z1LtC3eL-s-11" value="&amp;nbsp;POST /fleet-management/notifications" style="text;html=1;align=center;verticalAlign=middle;resizable=0;points=[];autosize=1;strokeColor=none;" parent="1" vertex="1">
          <mxGeometry x="252.5" y="-50" width="220" height="20" as="geometry" />
        </mxCell>
        <mxCell id="c6L_GwuFG2z1LtC3eL-s-16" value="AWS Auto Scaling" style="outlineConnect=0;fontColor=#232F3E;gradientColor=none;strokeColor=#ffffff;fillColor=#232F3E;dashed=0;verticalLabelPosition=middle;verticalAlign=bottom;align=center;html=1;whiteSpace=wrap;fontSize=10;fontStyle=1;spacing=3;shape=mxgraph.aws4.productIcon;prIcon=mxgraph.aws4.autoscaling;" parent="1" vertex="1">
          <mxGeometry x="405" y="-550" width="80" height="110" as="geometry" />
        </mxCell>
        <mxCell id="c6L_GwuFG2z1LtC3eL-s-27" style="edgeStyle=orthogonalEdgeStyle;rounded=0;orthogonalLoop=1;jettySize=auto;html=1;" parent="1" source="c6L_GwuFG2z1LtC3eL-s-24" target="c6L_GwuFG2z1LtC3eL-s-26" edge="1">
          <mxGeometry relative="1" as="geometry" />
        </mxCell>
        <mxCell id="c6L_GwuFG2z1LtC3eL-s-24" value="Amazon SNS" style="outlineConnect=0;fontColor=#232F3E;gradientColor=none;strokeColor=#ffffff;fillColor=#232F3E;dashed=0;verticalLabelPosition=middle;verticalAlign=bottom;align=center;html=1;whiteSpace=wrap;fontSize=10;fontStyle=1;spacing=3;shape=mxgraph.aws4.productIcon;prIcon=mxgraph.aws4.sns;" parent="1" vertex="1">
          <mxGeometry x="670" y="-90" width="80" height="100" as="geometry" />
        </mxCell>
        <mxCell id="c6L_GwuFG2z1LtC3eL-s-29" style="edgeStyle=orthogonalEdgeStyle;rounded=0;orthogonalLoop=1;jettySize=auto;html=1;" parent="1" source="c6L_GwuFG2z1LtC3eL-s-26" edge="1">
          <mxGeometry relative="1" as="geometry">
            <mxPoint x="1330" y="-137" as="targetPoint" />
            <Array as="points">
              <mxPoint x="1180" y="-70" />
              <mxPoint x="1180" y="-120" />
              <mxPoint x="1330" y="-120" />
            </Array>
          </mxGeometry>
        </mxCell>
        <mxCell id="c6L_GwuFG2z1LtC3eL-s-35" style="edgeStyle=orthogonalEdgeStyle;rounded=0;orthogonalLoop=1;jettySize=auto;html=1;" parent="1" source="c6L_GwuFG2z1LtC3eL-s-26" target="c6L_GwuFG2z1LtC3eL-s-31" edge="1">
          <mxGeometry relative="1" as="geometry">
            <Array as="points">
              <mxPoint x="1330" y="-60" />
              <mxPoint x="1330" y="-60" />
            </Array>
          </mxGeometry>
        </mxCell>
        <mxCell id="c6L_GwuFG2z1LtC3eL-s-36" style="edgeStyle=orthogonalEdgeStyle;rounded=0;orthogonalLoop=1;jettySize=auto;html=1;" parent="1" source="c6L_GwuFG2z1LtC3eL-s-26" target="c6L_GwuFG2z1LtC3eL-s-33" edge="1">
          <mxGeometry relative="1" as="geometry">
            <Array as="points">
              <mxPoint x="1330" y="-50" />
              <mxPoint x="1330" y="52" />
            </Array>
          </mxGeometry>
        </mxCell>
        <mxCell id="c6L_GwuFG2z1LtC3eL-s-37" style="edgeStyle=orthogonalEdgeStyle;rounded=0;orthogonalLoop=1;jettySize=auto;html=1;" parent="1" source="c6L_GwuFG2z1LtC3eL-s-26" target="c6L_GwuFG2z1LtC3eL-s-34" edge="1">
          <mxGeometry relative="1" as="geometry">
            <Array as="points">
              <mxPoint x="1280" y="-36" />
              <mxPoint x="1280" y="130" />
            </Array>
          </mxGeometry>
        </mxCell>
        <mxCell id="c6L_GwuFG2z1LtC3eL-s-41" style="edgeStyle=orthogonalEdgeStyle;rounded=0;orthogonalLoop=1;jettySize=auto;html=1;" parent="1" source="c6L_GwuFG2z1LtC3eL-s-26" target="c6L_GwuFG2z1LtC3eL-s-39" edge="1">
          <mxGeometry relative="1" as="geometry">
            <Array as="points">
              <mxPoint x="1094" y="-20" />
            </Array>
          </mxGeometry>
        </mxCell>
        <mxCell id="c6L_GwuFG2z1LtC3eL-s-50" style="edgeStyle=orthogonalEdgeStyle;rounded=0;orthogonalLoop=1;jettySize=auto;html=1;" parent="1" source="c6L_GwuFG2z1LtC3eL-s-26" target="c6L_GwuFG2z1LtC3eL-s-49" edge="1">
          <mxGeometry relative="1" as="geometry">
            <Array as="points">
              <mxPoint x="1095" y="-80" />
            </Array>
          </mxGeometry>
        </mxCell>
        <mxCell id="c6L_GwuFG2z1LtC3eL-s-26" value="SNS Topic/Fanout Exchanges" style="shape=image;html=1;verticalAlign=top;verticalLabelPosition=bottom;labelBackgroundColor=#ffffff;imageAspect=0;aspect=fixed;image=https://cdn2.iconfinder.com/data/icons/amazon-aws-stencils/100/App_Services_copy_Amazon_SNS_Topic-128.png" parent="1" vertex="1">
          <mxGeometry x="880" y="-104" width="128" height="128" as="geometry" />
        </mxCell>
        <mxCell id="c6L_GwuFG2z1LtC3eL-s-30" value="SMS/Push notifications" style="text;html=1;align=center;verticalAlign=middle;resizable=0;points=[];autosize=1;strokeColor=none;" parent="1" vertex="1">
          <mxGeometry x="1240" y="-170" width="140" height="20" as="geometry" />
        </mxCell>
        <mxCell id="c6L_GwuFG2z1LtC3eL-s-31" value="Mobile client" style="outlineConnect=0;fontColor=#232F3E;gradientColor=none;strokeColor=#232F3E;fillColor=#ffffff;dashed=0;verticalLabelPosition=bottom;verticalAlign=top;align=center;html=1;fontSize=12;fontStyle=0;aspect=fixed;shape=mxgraph.aws4.resourceIcon;resIcon=mxgraph.aws4.mobile_client;" parent="1" vertex="1">
          <mxGeometry x="1340" y="-76.75" width="60" height="60" as="geometry" />
        </mxCell>
        <mxCell id="c6L_GwuFG2z1LtC3eL-s-32" value="Mobile client" style="outlineConnect=0;fontColor=#232F3E;gradientColor=none;strokeColor=#232F3E;fillColor=#ffffff;dashed=0;verticalLabelPosition=bottom;verticalAlign=top;align=center;html=1;fontSize=12;fontStyle=0;aspect=fixed;shape=mxgraph.aws4.resourceIcon;resIcon=mxgraph.aws4.mobile_client;" parent="1" vertex="1">
          <mxGeometry x="1340" y="-170" width="60" height="60" as="geometry" />
        </mxCell>
        <mxCell id="c6L_GwuFG2z1LtC3eL-s-33" value="Mobile client" style="outlineConnect=0;fontColor=#232F3E;gradientColor=none;strokeColor=#232F3E;fillColor=#ffffff;dashed=0;verticalLabelPosition=bottom;verticalAlign=top;align=center;html=1;fontSize=12;fontStyle=0;aspect=fixed;shape=mxgraph.aws4.resourceIcon;resIcon=mxgraph.aws4.mobile_client;" parent="1" vertex="1">
          <mxGeometry x="1340" y="21.5" width="60" height="60" as="geometry" />
        </mxCell>
        <mxCell id="c6L_GwuFG2z1LtC3eL-s-34" value="Mobile client" style="outlineConnect=0;fontColor=#232F3E;gradientColor=none;strokeColor=#232F3E;fillColor=#ffffff;dashed=0;verticalLabelPosition=bottom;verticalAlign=top;align=center;html=1;fontSize=12;fontStyle=0;aspect=fixed;shape=mxgraph.aws4.resourceIcon;resIcon=mxgraph.aws4.mobile_client;" parent="1" vertex="1">
          <mxGeometry x="1340" y="100" width="60" height="60" as="geometry" />
        </mxCell>
        <mxCell id="c6L_GwuFG2z1LtC3eL-s-44" style="edgeStyle=orthogonalEdgeStyle;rounded=0;orthogonalLoop=1;jettySize=auto;html=1;" parent="1" source="c6L_GwuFG2z1LtC3eL-s-39" target="c6L_GwuFG2z1LtC3eL-s-42" edge="1">
          <mxGeometry relative="1" as="geometry" />
        </mxCell>
        <mxCell id="c6L_GwuFG2z1LtC3eL-s-39" value="Dead letter Queues" style="shape=image;html=1;verticalAlign=top;verticalLabelPosition=bottom;labelBackgroundColor=#ffffff;imageAspect=0;aspect=fixed;image=https://cdn4.iconfinder.com/data/icons/linecon/512/message-128.png" parent="1" vertex="1">
          <mxGeometry x="1054" y="81.5" width="80" height="80" as="geometry" />
        </mxCell>
        <mxCell id="c6L_GwuFG2z1LtC3eL-s-45" style="edgeStyle=orthogonalEdgeStyle;rounded=0;orthogonalLoop=1;jettySize=auto;html=1;" parent="1" source="c6L_GwuFG2z1LtC3eL-s-42" target="c6L_GwuFG2z1LtC3eL-s-43" edge="1">
          <mxGeometry relative="1" as="geometry" />
        </mxCell>
        <mxCell id="c6L_GwuFG2z1LtC3eL-s-42" value="Lambda Function" style="outlineConnect=0;fontColor=#232F3E;gradientColor=none;strokeColor=#232F3E;fillColor=#ffffff;dashed=0;verticalLabelPosition=bottom;verticalAlign=top;align=center;html=1;fontSize=12;fontStyle=0;aspect=fixed;shape=mxgraph.aws4.resourceIcon;resIcon=mxgraph.aws4.lambda_function;" parent="1" vertex="1">
          <mxGeometry x="940" y="91.5" width="60" height="60" as="geometry" />
        </mxCell>
        <mxCell id="c6L_GwuFG2z1LtC3eL-s-43" value="DATABASE" style="strokeWidth=2;html=1;shape=mxgraph.flowchart.database;whiteSpace=wrap;" parent="1" vertex="1">
          <mxGeometry x="940" y="289" width="60" height="60" as="geometry" />
        </mxCell>
        <mxCell id="c6L_GwuFG2z1LtC3eL-s-49" value="EMAIlL" style="outlineConnect=0;dashed=0;verticalLabelPosition=bottom;verticalAlign=top;align=center;html=1;shape=mxgraph.aws3.email;fillColor=#D9A741;gradientColor=none;" parent="1" vertex="1">
          <mxGeometry x="1054" y="-210.75" width="81" height="61.5" as="geometry" />
        </mxCell>
        <mxCell id="c6L_GwuFG2z1LtC3eL-s-51" value="EMAIlL" style="outlineConnect=0;dashed=0;verticalLabelPosition=bottom;verticalAlign=top;align=center;html=1;shape=mxgraph.aws3.email;fillColor=#D9A741;gradientColor=none;" parent="1" vertex="1">
          <mxGeometry x="1135" y="-211.5" width="81" height="61.5" as="geometry" />
        </mxCell>
        <mxCell id="c6L_GwuFG2z1LtC3eL-s-52" value="EMAIlL" style="outlineConnect=0;dashed=0;verticalLabelPosition=bottom;verticalAlign=top;align=center;html=1;shape=mxgraph.aws3.email;fillColor=#D9A741;gradientColor=none;" parent="1" vertex="1">
          <mxGeometry x="973" y="-211.5" width="81" height="61.5" as="geometry" />
        </mxCell>
        <mxCell id="c6L_GwuFG2z1LtC3eL-s-60" value="async event driver pub/sub model" style="text;html=1;strokeColor=none;fillColor=none;align=center;verticalAlign=middle;whiteSpace=wrap;rounded=0;" parent="1" vertex="1">
          <mxGeometry x="618.5" width="181.5" height="20" as="geometry" />
        </mxCell>
        <mxCell id="c6L_GwuFG2z1LtC3eL-s-62" value="/fleet-management/reporting" style="text;html=1;strokeColor=none;fillColor=none;align=center;verticalAlign=middle;whiteSpace=wrap;rounded=0;" parent="1" vertex="1">
          <mxGeometry x="403.75" y="320" width="40" height="30" as="geometry" />
        </mxCell>
        <mxCell id="c6L_GwuFG2z1LtC3eL-s-69" style="edgeStyle=orthogonalEdgeStyle;rounded=0;orthogonalLoop=1;jettySize=auto;html=1;entryX=0;entryY=0.5;entryDx=0;entryDy=0;entryPerimeter=0;" parent="1" source="c6L_GwuFG2z1LtC3eL-s-66" target="c6L_GwuFG2z1LtC3eL-s-68" edge="1">
          <mxGeometry relative="1" as="geometry" />
        </mxCell>
        <mxCell id="c6L_GwuFG2z1LtC3eL-s-72" style="edgeStyle=orthogonalEdgeStyle;rounded=0;orthogonalLoop=1;jettySize=auto;html=1;" parent="1" source="c6L_GwuFG2z1LtC3eL-s-66" edge="1">
          <mxGeometry relative="1" as="geometry">
            <mxPoint x="990" y="350" as="targetPoint" />
            <Array as="points">
              <mxPoint x="490" y="580" />
              <mxPoint x="990" y="580" />
            </Array>
          </mxGeometry>
        </mxCell>
        <mxCell id="c6L_GwuFG2z1LtC3eL-s-66" value="" style="html=1;dashed=0;whitespace=wrap;fillColor=#2875E2;strokeColor=#ffffff;points=[[0.005,0.63,0],[0.1,0.2,0],[0.9,0.2,0],[0.5,0,0],[0.995,0.63,0],[0.72,0.99,0],[0.5,1,0],[0.28,0.99,0]];shape=mxgraph.kubernetes.icon;prIcon=api" parent="1" vertex="1">
          <mxGeometry x="460" y="459" width="60" height="91.5" as="geometry" />
        </mxCell>
        <mxCell id="c6L_GwuFG2z1LtC3eL-s-68" value="DATABSE" style="shape=cylinder3;whiteSpace=wrap;html=1;boundedLbl=1;backgroundOutline=1;size=15;" parent="1" vertex="1">
          <mxGeometry x="760" y="464.75" width="60" height="80" as="geometry" />
        </mxCell>
        <mxCell id="gMruiBbs81_NsQWsztjA-6" style="edgeStyle=orthogonalEdgeStyle;rounded=0;orthogonalLoop=1;jettySize=auto;html=1;" parent="1" source="gMruiBbs81_NsQWsztjA-1" target="gMruiBbs81_NsQWsztjA-5" edge="1">
          <mxGeometry relative="1" as="geometry" />
        </mxCell>
        <mxCell id="gMruiBbs81_NsQWsztjA-1" value="AWS S3 Bucket/Fast temp storage" style="outlineConnect=0;dashed=0;verticalLabelPosition=bottom;verticalAlign=top;align=center;html=1;shape=mxgraph.aws3.s3;fillColor=#E05243;gradientColor=none;" parent="1" vertex="1">
          <mxGeometry x="1199" y="-430" width="76.5" height="93" as="geometry" />
        </mxCell>
        <mxCell id="gMruiBbs81_NsQWsztjA-7" style="edgeStyle=orthogonalEdgeStyle;rounded=0;orthogonalLoop=1;jettySize=auto;html=1;" parent="1" source="gMruiBbs81_NsQWsztjA-5" target="c6L_GwuFG2z1LtC3eL-s-43" edge="1">
          <mxGeometry relative="1" as="geometry">
            <Array as="points">
              <mxPoint x="1480" y="-383" />
              <mxPoint x="1480" y="330" />
            </Array>
          </mxGeometry>
        </mxCell>
        <mxCell id="gMruiBbs81_NsQWsztjA-5" value="Lambda Function/Transform data&amp;nbsp;" style="outlineConnect=0;fontColor=#232F3E;gradientColor=none;strokeColor=#232F3E;fillColor=#ffffff;dashed=0;verticalLabelPosition=bottom;verticalAlign=top;align=center;html=1;fontSize=12;fontStyle=0;aspect=fixed;shape=mxgraph.aws4.resourceIcon;resIcon=mxgraph.aws4.lambda_function;" parent="1" vertex="1">
          <mxGeometry x="1370" y="-413.5" width="60" height="60" as="geometry" />
        </mxCell>
        <mxCell id="gMruiBbs81_NsQWsztjA-11" style="edgeStyle=orthogonalEdgeStyle;rounded=0;orthogonalLoop=1;jettySize=auto;html=1;entryX=0.995;entryY=0.63;entryDx=0;entryDy=0;entryPerimeter=0;" parent="1" source="gMruiBbs81_NsQWsztjA-8" target="d7MVmfg-RTv1msQ8y9jw-19" edge="1">
          <mxGeometry relative="1" as="geometry" />
        </mxCell>
        <mxCell id="gMruiBbs81_NsQWsztjA-12" style="edgeStyle=orthogonalEdgeStyle;rounded=0;orthogonalLoop=1;jettySize=auto;html=1;" parent="1" source="gMruiBbs81_NsQWsztjA-8" target="d7MVmfg-RTv1msQ8y9jw-106" edge="1">
          <mxGeometry relative="1" as="geometry">
            <Array as="points">
              <mxPoint x="501" y="-190" />
            </Array>
          </mxGeometry>
        </mxCell>
        <mxCell id="gMruiBbs81_NsQWsztjA-15" style="edgeStyle=orthogonalEdgeStyle;rounded=0;orthogonalLoop=1;jettySize=auto;html=1;" parent="1" source="gMruiBbs81_NsQWsztjA-8" edge="1">
          <mxGeometry relative="1" as="geometry">
            <mxPoint x="550" y="-730" as="targetPoint" />
            <Array as="points">
              <mxPoint x="1010" y="-280" />
            </Array>
          </mxGeometry>
        </mxCell>
        <mxCell id="gMruiBbs81_NsQWsztjA-16" style="edgeStyle=orthogonalEdgeStyle;rounded=0;orthogonalLoop=1;jettySize=auto;html=1;" parent="1" source="gMruiBbs81_NsQWsztjA-8" edge="1">
          <mxGeometry relative="1" as="geometry">
            <mxPoint x="530" y="381" as="targetPoint" />
            <Array as="points">
              <mxPoint x="570" y="-210" />
              <mxPoint x="570" y="381" />
            </Array>
          </mxGeometry>
        </mxCell>
        <mxCell id="gMruiBbs81_NsQWsztjA-8" value="" style="shape=image;html=1;verticalAlign=top;verticalLabelPosition=bottom;labelBackgroundColor=#ffffff;imageAspect=0;aspect=fixed;image=https://cdn4.iconfinder.com/data/icons/logos-brands-5/24/kibana-128.png" parent="1" vertex="1">
          <mxGeometry x="632" y="-298" width="128" height="128" as="geometry" />
        </mxCell>
        <mxCell id="gMruiBbs81_NsQWsztjA-13" style="edgeStyle=orthogonalEdgeStyle;rounded=0;orthogonalLoop=1;jettySize=auto;html=1;" parent="1" source="gMruiBbs81_NsQWsztjA-10" target="d7MVmfg-RTv1msQ8y9jw-173" edge="1">
          <mxGeometry relative="1" as="geometry">
            <Array as="points">
              <mxPoint x="630" y="-9" />
              <mxPoint x="501" y="-9" />
            </Array>
          </mxGeometry>
        </mxCell>
        <mxCell id="gMruiBbs81_NsQWsztjA-10" value="ELK Stack For central monitoring/ log viewing by Prod support team" style="text;html=1;align=center;verticalAlign=middle;resizable=0;points=[];autosize=1;strokeColor=none;" parent="1" vertex="1">
          <mxGeometry x="500" y="-169.25" width="380" height="20" as="geometry" />
        </mxCell>
        <mxCell id="E4ljKwpt6V25fC0PbpRW-18" style="edgeStyle=orthogonalEdgeStyle;rounded=0;orthogonalLoop=1;jettySize=auto;html=1;entryX=0.5;entryY=0;entryDx=0;entryDy=0;entryPerimeter=0;" edge="1" parent="1" source="E4ljKwpt6V25fC0PbpRW-1" target="gMruiBbs81_NsQWsztjA-1">
          <mxGeometry relative="1" as="geometry" />
        </mxCell>
        <mxCell id="E4ljKwpt6V25fC0PbpRW-22" style="edgeStyle=orthogonalEdgeStyle;rounded=0;orthogonalLoop=1;jettySize=auto;html=1;entryX=0.1;entryY=0.2;entryDx=0;entryDy=0;entryPerimeter=0;" edge="1" parent="1" source="E4ljKwpt6V25fC0PbpRW-1" target="d7MVmfg-RTv1msQ8y9jw-106">
          <mxGeometry relative="1" as="geometry">
            <Array as="points">
              <mxPoint x="260" y="-741" />
              <mxPoint x="260" y="-67" />
            </Array>
          </mxGeometry>
        </mxCell>
        <mxCell id="E4ljKwpt6V25fC0PbpRW-1" value="" style="html=1;dashed=0;whitespace=wrap;fillColor=#2875E2;strokeColor=#ffffff;points=[[0.005,0.63,0],[0.1,0.2,0],[0.9,0.2,0],[0.5,0,0],[0.995,0.63,0],[0.72,0.99,0],[0.5,1,0],[0.28,0.99,0]];shape=mxgraph.kubernetes.icon;prIcon=api" vertex="1" parent="1">
          <mxGeometry x="447.5" y="-780" width="100" height="78" as="geometry" />
        </mxCell>
        <mxCell id="E4ljKwpt6V25fC0PbpRW-6" value="POST /fleet-management/thirdparty/couriers" style="text;html=1;align=center;verticalAlign=middle;resizable=0;points=[];autosize=1;strokeColor=none;" vertex="1" parent="1">
          <mxGeometry x="185" y="-770" width="250" height="20" as="geometry" />
        </mxCell>
        <mxCell id="E4ljKwpt6V25fC0PbpRW-7" value="Notify the courier services to dipatch the order" style="text;html=1;align=center;verticalAlign=middle;resizable=0;points=[];autosize=1;strokeColor=none;" vertex="1" parent="1">
          <mxGeometry x="390.5" y="-702" width="260" height="20" as="geometry" />
        </mxCell>
        <mxCell id="E4ljKwpt6V25fC0PbpRW-12" value="Hit courier notifications through the notifications API" style="text;html=1;strokeColor=none;fillColor=none;align=center;verticalAlign=middle;whiteSpace=wrap;rounded=0;" vertex="1" parent="1">
          <mxGeometry x="516.25" y="-790" width="127.5" height="20" as="geometry" />
        </mxCell>
        <mxCell id="E4ljKwpt6V25fC0PbpRW-19" value="transform the data as per table structure and update DB" style="text;html=1;align=center;verticalAlign=middle;resizable=0;points=[];autosize=1;strokeColor=none;" vertex="1" parent="1">
          <mxGeometry x="1275.5" y="-440" width="310" height="20" as="geometry" />
        </mxCell>
        <mxCell id="E4ljKwpt6V25fC0PbpRW-20" value="Logging" style="text;html=1;align=center;verticalAlign=middle;resizable=0;points=[];autosize=1;strokeColor=none;" vertex="1" parent="1">
          <mxGeometry x="1008" y="-690" width="60" height="20" as="geometry" />
        </mxCell>
        <mxCell id="E4ljKwpt6V25fC0PbpRW-21" value="async event driven and non blocking" style="text;html=1;align=center;verticalAlign=middle;resizable=0;points=[];autosize=1;strokeColor=none;" vertex="1" parent="1">
          <mxGeometry x="760" y="-450" width="210" height="20" as="geometry" />
        </mxCell>
        <mxCell id="E4ljKwpt6V25fC0PbpRW-23" value="Put status as failed notications/orders" style="text;html=1;align=center;verticalAlign=middle;resizable=0;points=[];autosize=1;strokeColor=none;" vertex="1" parent="1">
          <mxGeometry x="835" y="180" width="210" height="20" as="geometry" />
        </mxCell>
        <mxCell id="E4ljKwpt6V25fC0PbpRW-24" value="Send to customer/courier services" style="text;html=1;align=center;verticalAlign=middle;resizable=0;points=[];autosize=1;strokeColor=none;" vertex="1" parent="1">
          <mxGeometry x="845" y="6.5" width="200" height="20" as="geometry" />
        </mxCell>
      </root>
    </mxGraphModel>
  </diagram>
</mxfile>
